<?xml version="1.0" encoding="iso-8859-1"?>
<!-- Generator: Adobe Illustrator 19.0.0, SVG Export Plug-In . SVG Version: 6.00 Build 0)  -->
<svg version="1.1" id="Layer_1" xmlns="http://www.w3.org/2000/svg" xmlns:xlink="http://www.w3.org/1999/xlink" x="0px" y="0px"
	 viewBox="0 0 352.539 352.539" style="enable-background:new 0 0 352.539 352.539;" xml:space="preserve">
<g id="XMLID_1103_">
	<g id="XMLID_1104_">
		<circle id="XMLID_1105_" style="fill:#9FCBA5;" cx="142.215" cy="41.376" r="33.329"/>
		<circle id="XMLID_1106_" style="fill:#9FCBA5;" cx="96.57" cy="36.77" r="36.77"/>
		<circle id="XMLID_1107_" style="fill:#9FCBA5;" cx="173.37" cy="68.106" r="26.73"/>
		<circle id="XMLID_1108_" style="fill:#9FCBA5;" cx="63.965" cy="69.374" r="25.462"/>
		<rect id="XMLID_38_" x="63.965" y="55.065" style="fill:#9FCBA5;" width="109.405" height="39.772"/>
	</g>
	<g id="XMLID_1111_">
		<path id="XMLID_1110_" style="fill:#2B7B57;" d="M75.949,352.538h225.106c9.901,0,16.149-10.647,11.309-19.284
			c-13.94-24.877-29.897-63.015-29.897-107.271c0-45.039,3.739-78.534,6.359-96.476c1.142-7.822-4.919-14.829-12.823-14.829h-175.12
			c-7.874,0-13.94,6.965-12.834,14.761c2.624,18.493,6.488,53.096,6.488,96.544c0,44.256-15.956,82.395-29.897,107.271
			C59.8,341.892,66.048,352.538,75.949,352.538z"/>
	</g>
	<g id="XMLID_1114_">
		<path id="XMLID_1113_" style="fill:#9FCBA5;" d="M285.363,159.277H91.501c1.664,18.071,3.036,40.817,3.036,66.707
			c0,44.256-15.956,82.394-29.896,107.271c-4.84,8.637,1.408,19.284,11.309,19.284h225.106c9.901,0,16.149-10.647,11.309-19.284
			c-13.94-24.877-29.896-63.015-29.896-107.271C282.467,199.474,283.762,176.97,285.363,159.277z"/>
	</g>
	<g id="XMLID_1115_">
		<path id="XMLID_15_" style="fill:#49B86E;" d="M227.441,287.782c-20.365,20.365-55.681,20.007-72.15,18.54
			c-5.345-0.476-9.57-4.7-10.046-10.046c-1.467-16.469-1.825-51.785,18.54-72.15s55.681-20.007,72.15-18.54
			c5.345,0.476,9.57,4.7,10.046,10.046C247.448,232.101,247.807,267.417,227.441,287.782z"/>
		<g id="XMLID_1116_">
			<path id="XMLID_1118_" style="fill:#2B7B57;" d="M133.154,318.413L133.154,318.413c-3.641-3.641-3.641-9.543,0-13.184
				l49.275-49.275c3.641-3.641,9.543-3.641,13.184,0l0,0c3.641,3.641,3.641,9.543,0,13.184l-49.275,49.275
				C142.697,322.054,136.795,322.054,133.154,318.413z"/>
		</g>
	</g>
</g>
<g>
</g>
<g>
</g>
<g>
</g>
<g>
</g>
<g>
</g>
<g>
</g>
<g>
</g>
<g>
</g>
<g>
</g>
<g>
</g>
<g>
</g>
<g>
</g>
<g>
</g>
<g>
</g>
<g>
</g>
</svg>
