<?xml version="1.0" encoding="iso-8859-1"?>
<!-- Generator: Adobe Illustrator 19.0.0, SVG Export Plug-In . SVG Version: 6.00 Build 0)  -->
<svg version="1.1" id="Layer_1" xmlns="http://www.w3.org/2000/svg" xmlns:xlink="http://www.w3.org/1999/xlink" x="0px" y="0px"
	 viewBox="0 0 512 512" style="enable-background:new 0 0 512 512;" xml:space="preserve">
<g transform="translate(1 1)">
	<g>
		<polygon style="fill:#FCC309;" points="365.933,442.733 417.133,442.733 417.133,408.6 365.933,408.6 		"/>
		<polygon style="fill:#FCC309;" points="92.867,442.733 144.067,442.733 144.067,408.6 92.867,408.6 		"/>
	</g>
	<polygon style="fill:#1CD759;" points="237.933,502.467 272.067,502.467 272.067,451.267 237.933,451.267 	"/>
	<polygon style="fill:#FFDD09;" points="144.067,246.467 144.067,476.867 237.933,476.867 237.933,451.267 272.067,451.267 
		272.067,476.867 365.933,476.867 365.933,246.467 	"/>
	<g>
		<polygon style="fill:#1CD759;" points="255,417.133 289.133,417.133 289.133,365.933 255,365.933 		"/>
		<polygon style="fill:#1CD759;" points="186.733,417.133 220.867,417.133 220.867,365.933 186.733,365.933 		"/>
	</g>
	<g>
		<polygon style="fill:#15A143;" points="289.133,417.133 323.267,417.133 323.267,365.933 289.133,365.933 		"/>
		<polygon style="fill:#15A143;" points="220.867,417.133 255,417.133 255,365.933 220.867,365.933 		"/>
	</g>
	<g>
		<path style="fill:#54C9FD;" d="M229.4,306.2c0,14.507-11.093,25.6-25.6,25.6c-14.507,0-25.6-11.093-25.6-25.6
			s11.093-25.6,25.6-25.6C218.307,280.6,229.4,291.693,229.4,306.2"/>
		<path style="fill:#54C9FD;" d="M331.8,306.2c0,14.507-11.093,25.6-25.6,25.6s-25.6-11.093-25.6-25.6s11.093-25.6,25.6-25.6
			S331.8,291.693,331.8,306.2"/>
	</g>
	<polygon style="fill:#FFDD09;" points="417.133,246.467 92.867,246.467 75.8,7.533 434.2,7.533 	"/>
	<polygon style="fill:#FFFFFF;" points="75.8,7.533 92.867,246.467 115.907,246.467 101.4,7.533 	"/>
	<polygon style="fill:#FD9808;" points="408.6,7.533 394.093,246.467 417.133,246.467 434.2,7.533 	"/>
	<path style="fill:#54C9FD;" d="M365.933,212.333H144.067c-9.387,0-17.067-7.68-17.067-17.067V58.733
		c0-9.387,7.68-17.067,17.067-17.067h221.867c9.387,0,17.067,7.68,17.067,17.067v136.533
		C383,204.653,375.32,212.333,365.933,212.333"/>
	<path style="fill:#33A9F8;" d="M365.933,41.667h-25.6c9.387,0,17.067,7.68,17.067,17.067v136.533
		c0,9.387-7.68,17.067-17.067,17.067h25.6c9.387,0,17.067-7.68,17.067-17.067V58.733C383,49.347,375.32,41.667,365.933,41.667"/>
	<path style="fill:#FFDD09;" d="M16.067,212.333H50.2c5.12,0,8.533,3.413,8.533,8.533v17.067c0,5.12-3.413,8.533-8.533,8.533H16.067
		c-5.12,0-8.533-3.413-8.533-8.533v-17.067C7.533,215.747,10.947,212.333,16.067,212.333"/>
	<path style="fill:#FFFFFF;" d="M16.067,246.467h17.067c-5.12,0-8.533-3.413-8.533-8.533v-17.067c0-5.12,3.413-8.533,8.533-8.533
		H16.067c-5.12,0-8.533,3.413-8.533,8.533v17.067C7.533,243.053,10.947,246.467,16.067,246.467"/>
	<path style="fill:#FFDD09;" d="M493.933,246.467H459.8c-5.12,0-8.533-3.413-8.533-8.533v-17.067c0-5.12,3.413-8.533,8.533-8.533
		h34.133c5.12,0,8.533,3.413,8.533,8.533v17.067C502.467,243.053,499.053,246.467,493.933,246.467"/>
	<path style="fill:#FD9808;" d="M493.933,212.333h-17.067c5.12,0,8.533,3.413,8.533,8.533v17.067c0,5.12-3.413,8.533-8.533,8.533
		h17.067c5.12,0,8.533-3.413,8.533-8.533v-17.067C502.467,215.747,499.053,212.333,493.933,212.333"/>
	<g>
		<path style="fill:#FFDD09;" d="M468.333,502.467h-17.067c-18.773,0-34.133-15.36-34.133-34.133V383
			c0-18.773,15.36-34.133,34.133-34.133h17.067c18.773,0,34.133,15.36,34.133,34.133v85.333
			C502.467,487.107,487.107,502.467,468.333,502.467"/>
		<path style="fill:#FFDD09;" d="M41.667,502.467h17.067c18.773,0,34.133-15.36,34.133-34.133V383
			c0-18.773-15.36-34.133-34.133-34.133H41.667c-18.773,0-34.133,15.36-34.133,34.133v85.333
			C7.533,487.107,22.893,502.467,41.667,502.467"/>
		<polygon style="fill:#FFDD09;" points="7.533,314.733 109.933,314.733 109.933,280.6 7.533,280.6 		"/>
	</g>
	<polygon style="fill:#FFFFFF;" points="7.533,314.733 33.133,314.733 33.133,280.6 7.533,280.6 	"/>
	<polygon style="fill:#FFDD09;" points="400.067,314.733 502.467,314.733 502.467,280.6 400.067,280.6 	"/>
	<polygon style="fill:#FD9808;" points="476.867,314.733 502.467,314.733 502.467,280.6 476.867,280.6 	"/>
	<path id="SVGCleanerId_0" d="M468.333,511h-17.067c-23.893,0-42.667-18.773-42.667-42.667V383
		c0-23.893,18.773-42.667,42.667-42.667h17.067C492.227,340.333,511,359.107,511,383v85.333C511,492.227,492.227,511,468.333,511z
		 M451.267,357.4c-14.507,0-25.6,11.093-25.6,25.6v85.333c0,14.507,11.093,25.6,25.6,25.6h17.067c14.507,0,25.6-11.093,25.6-25.6
		V383c0-14.507-11.093-25.6-25.6-25.6H451.267z"/>
	<path d="M417.133,451.267h-51.2c-5.12,0-8.533-3.413-8.533-8.533V408.6c0-5.12,3.413-8.533,8.533-8.533h51.2
		c5.12,0,8.533,3.413,8.533,8.533v34.133C425.667,447.853,422.253,451.267,417.133,451.267z M374.467,434.2H408.6v-17.067h-34.133
		V434.2z"/>
	<path d="M417.133,255H92.867c-4.267,0-8.533-3.413-8.533-7.68L67.267,8.387c0-2.56,0.853-4.267,2.56-6.827
		C71.533-0.147,73.24-1,75.8-1h358.4c2.56,0,4.267,0.853,5.973,2.56c1.707,1.707,2.56,4.267,2.56,6.827L425.667,247.32
		C425.667,251.587,421.4,255,417.133,255z M100.547,237.933H408.6l16.213-221.867H85.187L100.547,237.933z"/>
	<path d="M263.533,220.867c-2.56,0-4.267-0.853-5.973-2.56c-3.413-3.413-3.413-8.533,0-11.947l76.8-76.8
		c3.413-3.413,8.533-3.413,11.947,0c3.413,3.413,3.413,8.533,0,11.947l-76.8,76.8C267.8,220.013,266.093,220.867,263.533,220.867z"
		/>
	<path d="M161.133,220.867c-2.56,0-4.267-0.853-5.973-2.56c-3.413-3.413-3.413-8.533,0-11.947l76.8-76.8
		c3.413-3.413,8.533-3.413,11.947,0c3.413,3.413,3.413,8.533,0,11.947l-76.8,76.8C165.4,220.013,163.693,220.867,161.133,220.867z"
		/>
	<path d="M297.667,186.733c-5.12,0-8.533-3.413-8.533-8.533v-34.133c0-5.12,3.413-8.533,8.533-8.533s8.533,3.413,8.533,8.533V178.2
		C306.2,183.32,302.787,186.733,297.667,186.733z"/>
	<path d="M195.267,186.733c-5.12,0-8.533-3.413-8.533-8.533v-34.133c0-5.12,3.413-8.533,8.533-8.533c5.12,0,8.533,3.413,8.533,8.533
		V178.2C203.8,183.32,200.387,186.733,195.267,186.733z"/>
	<path d="M144.067,340.333c-2.56,0-4.267-0.853-5.973-2.56L103.96,303.64c-3.413-3.413-3.413-8.533,0-11.947
		c3.413-3.413,8.533-3.413,11.947,0l34.133,34.133c3.413,3.413,3.413,8.533,0,11.947
		C148.333,339.48,146.627,340.333,144.067,340.333z"/>
	<path d="M365.933,340.333c-2.56,0-4.267-0.853-5.973-2.56c-3.413-3.413-3.413-8.533,0-11.947l34.133-34.133
		c3.413-3.413,8.533-3.413,11.947,0c3.413,3.413,3.413,8.533,0,11.947l-34.133,34.133C370.2,339.48,368.493,340.333,365.933,340.333
		z"/>
	<path d="M502.467,323.267h-102.4c-5.12,0-8.533-3.413-8.533-8.533V280.6c0-5.12,3.413-8.533,8.533-8.533h102.4
		c5.12,0,8.533,3.413,8.533,8.533v34.133C511,319.853,507.587,323.267,502.467,323.267z M408.6,306.2h85.333v-17.067H408.6V306.2z"
		/>
	<path d="M109.933,323.267H7.533c-5.12,0-8.533-3.413-8.533-8.533V280.6c0-5.12,3.413-8.533,8.533-8.533h102.4
		c5.12,0,8.533,3.413,8.533,8.533v34.133C118.467,319.853,115.053,323.267,109.933,323.267z M16.067,306.2H101.4v-17.067H16.067
		V306.2z"/>
	<path d="M365.933,220.867H144.067c-14.507,0-25.6-11.093-25.6-25.6V58.733c0-14.507,11.093-25.6,25.6-25.6h221.867
		c14.507,0,25.6,11.093,25.6,25.6v136.533C391.533,209.773,380.44,220.867,365.933,220.867z M144.067,50.2
		c-5.12,0-8.533,3.413-8.533,8.533v136.533c0,5.12,3.413,8.533,8.533,8.533h221.867c5.12,0,8.533-3.413,8.533-8.533V58.733
		c0-5.12-3.413-8.533-8.533-8.533H144.067z"/>
	<path d="M203.8,340.333c-18.773,0-34.133-15.36-34.133-34.133s15.36-34.133,34.133-34.133s34.133,15.36,34.133,34.133
		S222.573,340.333,203.8,340.333z M203.8,289.133c-9.387,0-17.067,7.68-17.067,17.067s7.68,17.067,17.067,17.067
		c9.387,0,17.067-7.68,17.067-17.067S213.187,289.133,203.8,289.133z"/>
	<path d="M306.2,340.333c-18.773,0-34.133-15.36-34.133-34.133s15.36-34.133,34.133-34.133s34.133,15.36,34.133,34.133
		S324.973,340.333,306.2,340.333z M306.2,289.133c-9.387,0-17.067,7.68-17.067,17.067s7.68,17.067,17.067,17.067
		s17.067-7.68,17.067-17.067S315.587,289.133,306.2,289.133z"/>
	<path d="M220.867,425.667h-34.133c-5.12,0-8.533-3.413-8.533-8.533v-51.2c0-5.12,3.413-8.533,8.533-8.533h34.133
		c5.12,0,8.533,3.413,8.533,8.533v51.2C229.4,422.253,225.987,425.667,220.867,425.667z M195.267,408.6h17.067v-34.133h-17.067
		V408.6z"/>
	<path d="M255,425.667h-34.133c-5.12,0-8.533-3.413-8.533-8.533v-51.2c0-5.12,3.413-8.533,8.533-8.533H255
		c5.12,0,8.533,3.413,8.533,8.533v51.2C263.533,422.253,260.12,425.667,255,425.667z M229.4,408.6h17.067v-34.133H229.4V408.6z"/>
	<path d="M289.133,425.667H255c-5.12,0-8.533-3.413-8.533-8.533v-51.2c0-5.12,3.413-8.533,8.533-8.533h34.133
		c5.12,0,8.533,3.413,8.533,8.533v51.2C297.667,422.253,294.253,425.667,289.133,425.667z M263.533,408.6H280.6v-34.133h-17.067
		V408.6z"/>
	<path d="M323.267,425.667h-34.133c-5.12,0-8.533-3.413-8.533-8.533v-51.2c0-5.12,3.413-8.533,8.533-8.533h34.133
		c5.12,0,8.533,3.413,8.533,8.533v51.2C331.8,422.253,328.387,425.667,323.267,425.667z M297.667,408.6h17.067v-34.133h-17.067
		V408.6z"/>
	<path d="M58.733,511H41.667C17.773,511-1,492.227-1,468.333V383c0-23.893,18.773-42.667,42.667-42.667h17.067
		c23.893,0,42.667,18.773,42.667,42.667v85.333C101.4,492.227,82.627,511,58.733,511z M41.667,357.4
		c-14.507,0-25.6,11.093-25.6,25.6v85.333c0,14.507,11.093,25.6,25.6,25.6h17.067c14.507,0,25.6-11.093,25.6-25.6V383
		c0-14.507-11.093-25.6-25.6-25.6H41.667z"/>
	<path d="M144.067,451.267h-51.2c-5.12,0-8.533-3.413-8.533-8.533V408.6c0-5.12,3.413-8.533,8.533-8.533h51.2
		c5.12,0,8.533,3.413,8.533,8.533v34.133C152.6,447.853,149.187,451.267,144.067,451.267z M101.4,434.2h34.133v-17.067H101.4V434.2z
		"/>
	<g>
		<path id="SVGCleanerId_0_1_" d="M468.333,511h-17.067c-23.893,0-42.667-18.773-42.667-42.667V383
			c0-23.893,18.773-42.667,42.667-42.667h17.067C492.227,340.333,511,359.107,511,383v85.333C511,492.227,492.227,511,468.333,511z
			 M451.267,357.4c-14.507,0-25.6,11.093-25.6,25.6v85.333c0,14.507,11.093,25.6,25.6,25.6h17.067c14.507,0,25.6-11.093,25.6-25.6
			V383c0-14.507-11.093-25.6-25.6-25.6H451.267z"/>
	</g>
	<path d="M476.867,434.2h-34.133c-2.56,0-4.267-0.853-5.973-2.56l-25.6-25.6c-1.707-1.707-2.56-3.413-2.56-5.973V383
		c0-8.533,2.56-17.067,7.68-24.747c1.707-1.707,3.413-3.413,5.973-3.413c2.56,0,5.12,0.853,6.827,2.56l17.067,17.067h27.307
		L490.52,357.4c1.707-1.707,4.267-2.56,6.827-2.56s5.12,1.707,5.973,3.413c5.12,7.68,7.68,16.213,7.68,24.747v17.067
		c0,2.56-0.853,4.267-2.56,5.973l-25.6,25.6C481.133,433.347,479.427,434.2,476.867,434.2z M446.147,417.133h27.307l20.48-20.48V383
		c0-1.707,0-3.413,0-4.267l-10.24,10.24c-2.56,1.707-4.267,2.56-6.827,2.56h-34.133c-2.56,0-4.267-0.853-5.973-2.56l-11.093-10.24
		c0,1.707,0,3.413,0,4.267v13.653L446.147,417.133z M476.867,383L476.867,383L476.867,383z"/>
	<path d="M476.867,476.867h-34.133c-2.56,0-4.267-0.853-5.973-2.56l-25.6-25.6c-1.707-1.707-2.56-3.413-2.56-5.973v-42.667
		c0-3.413,1.707-6.827,5.12-7.68c3.413-1.707,6.827-0.853,9.387,1.707l23.04,23.04h27.307l23.04-23.04
		c2.56-2.56,5.973-3.413,9.387-1.707c3.413,1.707,5.12,4.267,5.12,7.68v42.667c0,2.56-0.853,4.267-2.56,5.973l-25.6,25.6
		C481.133,476.013,479.427,476.867,476.867,476.867z M446.147,459.8h27.307l20.48-20.48v-18.773L482.84,431.64
		c-1.707,1.707-3.413,2.56-5.973,2.56h-34.133c-2.56,0-4.267-0.853-5.973-2.56l-11.093-11.093v18.773L446.147,459.8z"/>
	<path d="M67.267,434.2H33.133c-2.56,0-4.267-0.853-5.973-2.56l-25.6-25.6c-1.707-1.707-2.56-3.413-2.56-5.973V383
		c0-8.533,2.56-17.067,7.68-24.747c1.707-1.707,3.413-3.413,5.973-3.413s5.12,0.853,6.827,2.56l17.067,17.067h27.307L80.92,357.4
		c1.707-1.707,4.267-2.56,6.827-2.56c2.56,0,5.12,1.707,5.973,3.413c5.12,7.68,7.68,16.213,7.68,24.747v17.067
		c0,2.56-0.853,4.267-2.56,5.973l-25.6,25.6C71.533,433.347,69.827,434.2,67.267,434.2z M36.547,417.133h27.307l20.48-20.48V383
		c0-1.707,0-3.413,0-4.267l-10.24,10.24c-2.56,1.707-4.267,2.56-6.827,2.56H33.133c-2.56,0-4.267-0.853-5.973-2.56l-11.093-10.24
		c0,1.707,0,3.413,0,4.267v13.653L36.547,417.133z M67.267,383L67.267,383L67.267,383z"/>
	<path d="M67.267,476.867H33.133c-2.56,0-4.267-0.853-5.973-2.56l-25.6-25.6C-0.147,447-1,445.293-1,442.733v-42.667
		c0-3.413,1.707-6.827,5.12-7.68c3.413-1.707,6.827-0.853,9.387,1.707l23.04,23.04h27.307l23.04-23.04
		c2.56-2.56,5.973-3.413,9.387-1.707c3.413,1.707,5.12,4.267,5.12,7.68v42.667c0,2.56-0.853,4.267-2.56,5.973l-25.6,25.6
		C71.533,476.013,69.827,476.867,67.267,476.867z M36.547,459.8h27.307l20.48-20.48v-18.773L73.24,431.64
		c-1.707,1.707-3.413,2.56-5.973,2.56H33.133c-2.56,0-4.267-0.853-5.973-2.56l-11.093-11.093v18.773L36.547,459.8z"/>
	<path d="M33.133,289.133c-5.12,0-8.533-3.413-8.533-8.533v-34.133c0-5.12,3.413-8.533,8.533-8.533s8.533,3.413,8.533,8.533V280.6
		C41.667,285.72,38.253,289.133,33.133,289.133z"/>
	<path d="M50.2,255H16.067C6.68,255-1,247.32-1,237.933v-17.067c0-9.387,7.68-17.067,17.067-17.067H50.2
		c9.387,0,17.067,7.68,17.067,17.067v17.067C67.267,247.32,59.587,255,50.2,255z M16.067,220.867v17.067H50.2v-17.067H16.067z"/>
	<path d="M476.867,289.133c-5.12,0-8.533-3.413-8.533-8.533v-34.133c0-5.12,3.413-8.533,8.533-8.533c5.12,0,8.533,3.413,8.533,8.533
		V280.6C485.4,285.72,481.987,289.133,476.867,289.133z"/>
	<path d="M493.933,255H459.8c-9.387,0-17.067-7.68-17.067-17.067v-17.067c0-9.387,7.68-17.067,17.067-17.067h34.133
		c9.387,0,17.067,7.68,17.067,17.067v17.067C511,247.32,503.32,255,493.933,255z M459.8,220.867v17.067h34.133v-17.067H459.8z"/>
	<path d="M272.067,511h-34.133c-5.12,0-8.533-3.413-8.533-8.533v-51.2c0-5.12,3.413-8.533,8.533-8.533h34.133
		c5.12,0,8.533,3.413,8.533,8.533v51.2C280.6,507.587,277.187,511,272.067,511z M246.467,493.933h17.067V459.8h-17.067V493.933z"/>
	<path d="M365.933,485.4h-93.867c-5.12,0-8.533-3.413-8.533-8.533V459.8h-17.067v17.067c0,5.12-3.413,8.533-8.533,8.533h-93.867
		c-5.12,0-8.533-3.413-8.533-8.533v-230.4c0-5.12,3.413-8.533,8.533-8.533h221.867c5.12,0,8.533,3.413,8.533,8.533v230.4
		C374.467,481.987,371.053,485.4,365.933,485.4z M280.6,468.333h76.8V255H152.6v213.333h76.8v-17.067
		c0-5.12,3.413-8.533,8.533-8.533h34.133c5.12,0,8.533,3.413,8.533,8.533V468.333z"/>
</g>
<g>
</g>
<g>
</g>
<g>
</g>
<g>
</g>
<g>
</g>
<g>
</g>
<g>
</g>
<g>
</g>
<g>
</g>
<g>
</g>
<g>
</g>
<g>
</g>
<g>
</g>
<g>
</g>
<g>
</g>
</svg>
